<svg xmlns="http://www.w3.org/2000/svg" width="30" height="19.091" viewBox="0 0 30 19.091"><defs><style>.a{fill:#a5a5a5;}</style></defs><g transform="translate(38 -10)"><path class="a" d="M22.455,18.182a4.091,4.091,0,1,0-4.091-4.091A4.083,4.083,0,0,0,22.455,18.182Zm-10.909,0a4.091,4.091,0,1,0-4.091-4.091A4.083,4.083,0,0,0,11.545,18.182Zm0,2.727C8.361,20.909,2,22.5,2,25.682v3.409H21.091V25.682C21.091,22.5,14.73,20.909,11.545,20.909Zm10.909,0c-.4,0-.839.027-1.316.075a5.717,5.717,0,0,1,2.68,4.7v3.409H32V25.682C32,22.5,25.639,20.909,22.455,20.909Z" transform="translate(-40)"/></g></svg>