<svg xmlns="http://www.w3.org/2000/svg" width="67.6" height="67.547" viewBox="0 0 67.6 67.547"><defs><style>.a{fill:#f9cfcf;}.b{fill:#7c3b75;}.c{fill:#5a2354;}</style></defs><g transform="translate(0 -0.203)"><path class="a" d="M27.4,92.8H14.353a1.027,1.027,0,0,1-1.027-1.027V88.893a7.552,7.552,0,0,1,7.552-7.552h0a7.552,7.552,0,0,1,7.552,7.552v2.881A1.027,1.027,0,0,1,27.4,92.8Z" transform="translate(-11.567 -70.425)"/><path class="a" d="M132.956,254.768a6.474,6.474,0,0,1-2.794-3.291,6.728,6.728,0,0,1-4.052-6.242,6.653,6.653,0,0,1,6.537-6.749h8.32a6.752,6.752,0,0,1,0,13.5h-6.452a6.479,6.479,0,0,0,.067,1.724l.3,1.764a.282.282,0,0,1-.433.282Z" transform="translate(-109.46 -206.822)"/><path class="b" d="M173.141,245.236a6.653,6.653,0,0,0-6.537-6.749h-8.32a6.324,6.324,0,0,0-2.638.576,10.726,10.726,0,0,0,10.75,9.951h5.622A6.863,6.863,0,0,0,173.141,245.236Z" transform="translate(-135.096 -206.823)"/><path class="a" d="M200.718,199.352a7.912,7.912,0,0,0,.181-2.616h-8.078a8.278,8.278,0,1,1-.126-16.556h10.442a8.353,8.353,0,0,1,8.393,8.178,8.247,8.247,0,0,1-5.138,7.759,8.788,8.788,0,0,1-4.115,4.39l-1.55.895a.282.282,0,0,1-.415-.308Z" transform="translate(-160.069 -156.214)"/><path class="b" d="M191.184,190.835a8.287,8.287,0,0,1,8.277-8.406h9.415a8.441,8.441,0,0,0-5.739-2.249H192.694a8.278,8.278,0,1,0,.126,16.556h1.021A8.181,8.181,0,0,1,191.184,190.835Z" transform="translate(-160.068 -156.214)"/><path class="a" d="M397.886,92.8h-13.05a1.027,1.027,0,0,1-1.027-1.027V88.893a7.552,7.552,0,0,1,7.552-7.552h0a7.552,7.552,0,0,1,7.552,7.552v2.881A1.027,1.027,0,0,1,397.886,92.8Z" transform="translate(-333.134 -70.425)"/><path class="a" d="M27.4,398.329H14.353a1.027,1.027,0,0,1-1.027-1.027v-2.881a7.552,7.552,0,0,1,7.552-7.552h0a7.552,7.552,0,0,1,7.552,7.552V397.3A1.027,1.027,0,0,1,27.4,398.329Z" transform="translate(-11.567 -335.614)"/><path class="a" d="M397.886,398.329h-13.05a1.027,1.027,0,0,1-1.027-1.027v-2.881a7.552,7.552,0,0,1,7.552-7.552h0a7.552,7.552,0,0,1,7.552,7.552V397.3A1.027,1.027,0,0,1,397.886,398.329Z" transform="translate(-333.134 -335.614)"/><g transform="translate(4.352 5.427)"><path class="b" d="M37.858,49.559a4.894,4.894,0,1,1,4.894-4.894A4.9,4.9,0,0,1,37.858,49.559Z" transform="translate(-32.964 -39.771)"/><path class="b" d="M408.34,49.559a4.894,4.894,0,1,1,4.894-4.894A4.9,4.9,0,0,1,408.34,49.559Z" transform="translate(-354.531 -39.771)"/><path class="b" d="M37.858,355.088a4.894,4.894,0,1,1,4.894-4.894A4.9,4.9,0,0,1,37.858,355.088Z" transform="translate(-32.964 -304.961)"/><path class="b" d="M408.34,355.088a4.894,4.894,0,1,1,4.894-4.894A4.9,4.9,0,0,1,408.34,355.088Z" transform="translate(-354.531 -304.961)"/></g><path class="b" d="M124.632,24.451a1.1,1.1,0,0,0,.551-.149,31.591,31.591,0,0,1,3.277-1.655,1.1,1.1,0,0,0-.875-2.018,33.807,33.807,0,0,0-3.507,1.77,1.1,1.1,0,0,0,.553,2.051Z" transform="translate(-107.221 -17.651)"/><path class="b" d="M291.191,6.036a31.52,31.52,0,0,1,3.576.838,1.1,1.1,0,1,0,.626-2.109,33.731,33.731,0,0,0-3.827-.9,1.1,1.1,0,0,0-.376,2.167Z" transform="translate(-251.953 -3.168)"/><path class="b" d="M233.979,2.46l.066,0c.624-.037,1.258-.055,1.885-.055h0c.6,0,1.2.017,1.788.05a1.1,1.1,0,1,0,.123-2.2C237.212.221,236.569.2,235.933.2h0c-.669,0-1.347.02-2.014.059a1.1,1.1,0,0,0,.064,2.2Z" transform="translate(-202.133)"/><path class="b" d="M489.446,190.283a1.1,1.1,0,0,0-.815,1.325,31.61,31.61,0,0,1,.641,3.617,1.1,1.1,0,1,0,2.184-.257,33.81,33.81,0,0,0-.686-3.87A1.1,1.1,0,0,0,489.446,190.283Z" transform="translate(-424.091 -164.957)"/><path class="b" d="M480.538,309.345a1.1,1.1,0,1,0,2.067.752,33.694,33.694,0,0,0,1.126-3.768,1.1,1.1,0,0,0-2.141-.505A31.512,31.512,0,0,1,480.538,309.345Z" transform="translate(-417.034 -264.534)"/><path class="b" d="M346.064,22.339a31.617,31.617,0,0,1,3.285,1.646,1.1,1.1,0,1,0,1.1-1.906,33.788,33.788,0,0,0-3.515-1.761,1.1,1.1,0,1,0-.868,2.021Z" transform="translate(-299.795 -17.381)"/><path class="b" d="M7.521,305.264a1.1,1.1,0,0,0-.816,1.324,33.674,33.674,0,0,0,1.129,3.765A1.1,1.1,0,0,0,9.9,309.6a31.491,31.491,0,0,1-1.055-3.518A1.1,1.1,0,0,0,7.521,305.264Z" transform="translate(-5.793 -264.758)"/><path class="b" d="M177.366,7.068a1.1,1.1,0,0,0,.317-.047,31.514,31.514,0,0,1,3.573-.849,1.1,1.1,0,0,0-.383-2.166,33.71,33.71,0,0,0-3.824.909,1.1,1.1,0,0,0,.316,2.153Z" transform="translate(-152.994 -3.286)"/><path class="b" d="M495.008,247.347a1.1,1.1,0,0,0-1.1,1.1v.07a32.1,32.1,0,0,1-.211,3.669,1.1,1.1,0,1,0,2.185.253,34.3,34.3,0,0,0,.225-3.921v-.07A1.1,1.1,0,0,0,495.008,247.347Z" transform="translate(-428.508 -214.513)"/><path class="b" d="M266.883,491.817a31.809,31.809,0,0,1-3.65.424,1.1,1.1,0,0,0,.063,2.2l.065,0a33.952,33.952,0,0,0,3.9-.454,1.1,1.1,0,1,0-.38-2.166Z" transform="translate(-227.579 -426.69)"/><path class="b" d="M209.737,492.282a31.824,31.824,0,0,1-3.65-.42,1.1,1.1,0,1,0-.378,2.167,34.013,34.013,0,0,0,3.9.449l.063,0a1.1,1.1,0,0,0,.061-2.2Z" transform="translate(-177.759 -426.73)"/><path class="b" d="M154.685,476.753a31.443,31.443,0,0,1-3.454-1.255,1.1,1.1,0,0,0-.871,2.02,33.7,33.7,0,0,0,3.7,1.343,1.1,1.1,0,1,0,.628-2.107Z" transform="translate(-129.931 -412.463)"/><path class="b" d="M2.593,196.959a1.111,1.111,0,0,0,.127.007,1.1,1.1,0,0,0,1.091-.975,31.61,31.61,0,0,1,.63-3.619,1.1,1.1,0,0,0-2.142-.5,33.849,33.849,0,0,0-.673,3.872A1.1,1.1,0,0,0,2.593,196.959Z" transform="translate(-1.404 -165.624)"/><path class="b" d="M323.054,475.4a31.5,31.5,0,0,1-3.451,1.258,1.1,1.1,0,1,0,.631,2.107,33.705,33.705,0,0,0,3.693-1.346,1.1,1.1,0,0,0-.873-2.019Z" transform="translate(-276.724 -412.378)"/><path class="b" d="M1.449,254.123a1.1,1.1,0,0,0,.965-1.22,32.067,32.067,0,0,1-.214-3.669,1.1,1.1,0,0,0-1.1-1.1h0a1.1,1.1,0,0,0-1.1,1.1,34.281,34.281,0,0,0,.229,3.921,1.1,1.1,0,0,0,1.091.972A1.117,1.117,0,0,0,1.449,254.123Z" transform="translate(0 -215.198)"/><path class="c" d="M7.039,51.509H19.746a2.34,2.34,0,0,0,2.337-2.337v-2.65a7.941,7.941,0,0,0-.425-2.571.992.992,0,1,0-1.878.641,5.962,5.962,0,0,1,.318,1.93v2.65a.353.353,0,0,1-.353.353H7.039a.353.353,0,0,1-.353-.353v-2.65a5.984,5.984,0,0,1,1.989-4.45,5.808,5.808,0,1,0-.92-1.815A7.969,7.969,0,0,0,4.7,46.522v2.65A2.34,2.34,0,0,0,7.039,51.509Zm6.288-16.767a3.836,3.836,0,1,1-3.836,3.836A3.84,3.84,0,0,1,13.327,34.742Z" transform="translate(-4.081 -28.257)"/><path class="c" d="M375.652,46.523v2.65a2.34,2.34,0,0,0,2.337,2.337H390.7a2.34,2.34,0,0,0,2.337-2.337v-2.65a7.941,7.941,0,0,0-.425-2.571.992.992,0,1,0-1.878.641,5.966,5.966,0,0,1,.318,1.93v2.65a.353.353,0,0,1-.353.353H377.99a.353.353,0,0,1-.353-.353v-2.65a5.984,5.984,0,0,1,1.989-4.45,5.806,5.806,0,1,0-.92-1.815A7.968,7.968,0,0,0,375.652,46.523Zm8.625-11.78a3.836,3.836,0,1,1-3.836,3.836A3.84,3.84,0,0,1,384.277,34.743Z" transform="translate(-326.054 -28.258)"/><path class="c" d="M391.349,348.2a.992.992,0,0,0-.619,1.26,5.966,5.966,0,0,1,.318,1.93v2.65a.353.353,0,0,1-.353.353H377.989a.353.353,0,0,1-.353-.353v-2.65a5.984,5.984,0,0,1,1.989-4.45,5.807,5.807,0,1,0-.92-1.815,7.969,7.969,0,0,0-3.053,6.265v2.65a2.34,2.34,0,0,0,2.337,2.337H390.7a2.34,2.34,0,0,0,2.337-2.337v-2.65a7.941,7.941,0,0,0-.425-2.571A.992.992,0,0,0,391.349,348.2Zm-7.072-8.59a3.836,3.836,0,0,1,0,7.672,4.008,4.008,0,0,1-2.711-1.125,3.654,3.654,0,0,1-1.125-2.711A3.84,3.84,0,0,1,384.277,339.611Z" transform="translate(-326.054 -292.873)"/><path class="c" d="M20.4,348.2a.992.992,0,0,0-.619,1.26,5.962,5.962,0,0,1,.318,1.93v2.65a.353.353,0,0,1-.353.353H7.039a.353.353,0,0,1-.353-.353v-2.65a5.984,5.984,0,0,1,1.989-4.45,5.807,5.807,0,1,0-.92-1.815A7.969,7.969,0,0,0,4.7,351.391v2.65a2.34,2.34,0,0,0,2.337,2.337H19.746a2.34,2.34,0,0,0,2.337-2.337v-2.65a7.941,7.941,0,0,0-.425-2.571A.992.992,0,0,0,20.4,348.2Zm-7.072-8.59a3.836,3.836,0,1,1-3.836,3.836A3.84,3.84,0,0,1,13.327,339.611Z" transform="translate(-4.081 -292.873)"/><path class="c" d="M146.557,173.165H136a9.217,9.217,0,0,0-9.079,7.7h-.36a7.58,7.58,0,0,0-7.463,7.675,7.664,7.664,0,0,0,4.242,6.923c1.274,3.085,5.248,4.565,5.424,4.629a.992.992,0,0,0,1.243-1.342,7.181,7.181,0,0,1-.672-2.536h5.546a10.579,10.579,0,0,0,1.119-.128,7.363,7.363,0,0,0,5.735-4.513h1.58a8.624,8.624,0,0,1-.881,3.426.992.992,0,0,0,1.229,1.357c.22-.078,5.229-1.884,6.766-5.635a9.2,9.2,0,0,0-3.87-17.555Zm2.713,15.895a.976.976,0,0,0-.567.6,7.71,7.71,0,0,1-3.65,3.84,8.912,8.912,0,0,0,.2-3.026,1,1,0,0,0-.987-.888H136a7.168,7.168,0,0,1-2.689-.521.987.987,0,0,0-1.069.213l-.014.014a.985.985,0,0,0,.33,1.609,9.143,9.143,0,0,0,3.442.669h3.513a5.435,5.435,0,0,1-4.632,2.656h-6.511a.99.99,0,0,0-.985.877,7.486,7.486,0,0,0,.068,2.083,5.621,5.621,0,0,1-2.369-2.731,1.025,1.025,0,0,0-.57-.641,5.671,5.671,0,0,1-3.431-5.278,5.594,5.594,0,0,1,5.479-5.691h.248a9.128,9.128,0,0,0,.651,2.948.985.985,0,0,0,1.61.333l.015-.015a.985.985,0,0,0,.215-1.065,7.175,7.175,0,0,1-.516-2.842,7.286,7.286,0,0,1,7.32-7.059h10.334a7.34,7.34,0,0,1,7.341,7.243A7.193,7.193,0,0,1,149.27,189.06Z" transform="translate(-103.372 -150.126)"/></g></svg>