<svg xmlns="http://www.w3.org/2000/svg" width="42.162" height="36.71" viewBox="0 0 42.162 36.71"><defs><style>.a{fill:#fdfdfc;}.b{fill:#ef7367;}</style></defs><g transform="translate(-72.714 -134.72)"><g transform="translate(72.714 134.72)"><path class="a" d="M93.429,128.789V110.434h42.162v36.71H93.429Z" transform="translate(-93.429 -110.434)"/><path class="b" d="M129.341,145.855c.1-.5.3-.909.463-.909s-.018-.842-.394-1.871a5.848,5.848,0,0,1-.516-2.143c.092-.149-.063-.361-.346-.469-.839-.322-.267-2.911.728-3.293.913-.35.552-.948-.573-.948-1.071,0-1.444-.466-.727-.909a.8.8,0,0,0,.363-.588c0-.2-.164-.262-.363-.139s-.363-.168-.363-.675.2-.982.454-1.083.086-.2-.363-.212c-.519-.019-.824-.261-.834-.665-.033-1.323-1.064,2.342-1.069,3.8a5.025,5.025,0,0,1-2.731,4.731c-2.838,1.4-4.216,1.917-5.079,1.917a1.492,1.492,0,0,0-1.1.363.8.8,0,0,1-.588.363c-.2,0-.275-.144-.166-.319s-.282-.415-.867-.532c-1.285-.257-3.206-2.1-4.181-4.007a28.716,28.716,0,0,0-3.18-4.16c-1.527-1.711-2.466-3.08-2.466-3.6,0-1.03.477-1.072,1.137-.1.424.624.675.682,1.68.389.859-.25,1.184-.228,1.192.084.006.236.18.14.386-.214s.53-.548.719-.431.6-.043.912-.356a1.888,1.888,0,0,1,1.007-.568c.437,0,3.262-2.548,3.055-2.755a24.9,24.9,0,0,0-4.6,1.348q-.872.351-1.254-.03a1.686,1.686,0,0,0-1.042-.381c-1.7,0-6.077-4.067-5.793-5.388.139-.65,1.194-1.533,1.56-1.306.131.081.332-.1.447-.4.25-.652-.532-.725-1.15-.107-.24.24-.436.322-.436.182s-.368.113-.818.563l-.818.818-.12-.844c-.21-1.48.185-1.965,1.383-1.7,1.412.31,2.553-.07,2.553-.851,0-.524.359-.618,2.28-.593a10.087,10.087,0,0,1,2.666.268,5.669,5.669,0,0,0,1.751.33c.978.066,1.464-.084,1.713-.53.427-.763,2.493-.861,2.493-.119,0,.7,1.365.988,1.94.413a2.606,2.606,0,0,1,1.141-.6.994.994,0,0,0,.758-.755c.05-.344-.1-.589-.329-.545s-.352-.166-.268-.466a7.038,7.038,0,0,0,.182-1.33c.02-.564.173-.7.539-.5a3,3,0,0,0,1.731-.051,2.765,2.765,0,0,1,1.67-.048,4.2,4.2,0,0,0,1.608.333,3.029,3.029,0,0,1,1.752.639,1.84,1.84,0,0,0,1.724.637c.15-.024.273.109.273.3,0,.672,1.5.827,2.162.224.6-.546.674-.546.881-.007a1.66,1.66,0,0,1-.1,1.2,1.4,1.4,0,0,0,1.165,1.877c.393,0,.562.323.542,1.038-.035,1.222.3,1.87.963,1.87.263,0,.576.491.7,1.09.169.845.413,1.09,1.083,1.09.883,0,2.924,2.029,2.588,2.573-.1.155.154.387.556.514.7.224.707.265.1,1.105a2.123,2.123,0,0,1-1.089.884c-.585.015-.585.822,0,1.424.366.377.314.445-.273.351-.965-.154-1.054.018-.742,1.441a1.832,1.832,0,0,1-.314,1.846,2.958,2.958,0,0,0-.579,1.72c0,1.028.064,1.072,1.322.925.917-.107,1.245-.029,1.069.255a1.164,1.164,0,0,1-.907.409,2.191,2.191,0,0,0-1.337.909c-.375.5-.889.909-1.141.909-.686,0-.554.492.268,1.006a2.168,2.168,0,0,1,.291,2.919c-.619.618-1.017.54-1.024-.2,0-.5-.075-.527-.318-.143-.218.344-.388.371-.561.091-.448-.724-.9-.422-.9.6,0,1.729-.136,2.234-.669,2.439-.645.247-1.262-.1-.982-.556.115-.186-.126-.338-.536-.338a1.619,1.619,0,0,0-1.2.727C129.453,147.03,129.132,146.95,129.341,145.855Z" transform="translate(-98.535 -112.598)"/></g></g></svg>