<svg xmlns="http://www.w3.org/2000/svg" width="23.87" height="23.124" viewBox="0 0 23.87 23.124"><defs><style>.a{fill:#a5a5a5;}</style></defs><circle class="a" cx="2.238" cy="2.238" r="2.238" transform="translate(2.238 2.238)"/><path class="a" d="M5.222,21.443V13.984a5.19,5.19,0,0,1,.932-2.97c-.062,0-.124-.013-.186-.013H2.984A2.987,2.987,0,0,0,0,13.984v4.476H1.492v5.222H6.713V21.443Z" transform="translate(0 -2.795)"/><circle class="a" cx="2.238" cy="2.238" r="2.238" transform="translate(17.156 2.238)"/><path class="a" d="M24.492,21.443V13.984a5.19,5.19,0,0,0-.932-2.97c.062,0,.124-.013.186-.013H26.73a2.987,2.987,0,0,1,2.984,2.984v4.476H28.222v5.222H23V21.443Z" transform="translate(-5.844 -2.795)"/><path class="a" d="M15.713,10H12.73A3.734,3.734,0,0,0,9,13.73V19.7h2.238v5.967h5.967V19.7h2.238V13.73A3.734,3.734,0,0,0,15.713,10Z" transform="translate(-2.287 -2.541)"/><circle class="a" cx="2.984" cy="2.984" r="2.984" transform="translate(8.951)"/></svg>