<svg xmlns="http://www.w3.org/2000/svg" width="19.804" height="21.124" viewBox="0 0 19.804 21.124"><defs><style>.a{fill:#a5a5a5;}</style></defs><g transform="translate(-1)"><path class="a" d="M18.633,21.246A22.793,22.793,0,0,0,10.9,20a22.793,22.793,0,0,0-7.731,1.246A3.3,3.3,0,0,0,1,24.348v2.913a.66.66,0,0,0,.66.66H20.144a.66.66,0,0,0,.66-.66V24.348A3.3,3.3,0,0,0,18.633,21.246Z" transform="translate(0 -6.798)"/><path class="a" d="M13.281,11.882A5.287,5.287,0,0,0,18.562,6.6V5.281A5.281,5.281,0,0,0,8,5.281V6.6A5.287,5.287,0,0,0,13.281,11.882Z" transform="translate(-2.379)"/></g></svg>